<svg width="320" height="88" viewBox="0 0 320 88" fill="none" xmlns="http://www.w3.org/2000/svg">
  <rect x="4" y="4" width="80" height="80" rx="20" fill="#3F6EE8" />
  <path d="M25 23H63V31H50V64H38V31H25V23Z" fill="#EEF4FF" />
  <circle cx="67" cy="21" r="7" fill="#EEF4FF" />
  <path d="M108 58V30H118V58H108Z" fill="#121926" />
  <path d="M127 58V30H137V34.5C139.5 31.1 143.6 29.4 148 29.4C156 29.4 161 34.7 161 43.6V58H151V45.4C151 40.9 148.7 38.5 144.9 38.5C140.8 38.5 137 41.2 137 46.4V58H127Z" fill="#121926" />
  <path d="M171 58V39H164V30H171V27.8C171 18.9 176.6 14 185.4 14C188.5 14 191.4 14.7 193.2 15.8V24.3C191.7 23.4 189.8 22.9 188.1 22.9C184.9 22.9 181 24.3 181 29.4V30H192V39H181V58H171Z" fill="#121926" />
  <path d="M198 58V30H208V58H198ZM203 26.3C199.5 26.3 196.8 23.6 196.8 20.2C196.8 16.8 199.5 14.2 203 14.2C206.4 14.2 209.2 16.8 209.2 20.2C209.2 23.6 206.4 26.3 203 26.3Z" fill="#121926" />
  <path d="M214 44C214 35.5 220.5 29.4 229.3 29.4C234.1 29.4 238.2 31.3 240.9 34.8V30H250V58H240.9V53.2C238.1 56.8 234.1 58.6 229.3 58.6C220.5 58.6 214 52.4 214 44ZM232.2 49.8C236.7 49.8 240.2 46.6 240.2 44C240.2 41.4 236.7 38.2 232.2 38.2C227.8 38.2 224.2 41.2 224.2 44C224.2 46.8 227.8 49.8 232.2 49.8Z" fill="#121926" />
  <path d="M258 58V30H268V35.3C269.9 31.6 273 29.7 276.8 29.7C278 29.7 279 29.9 279.8 30.2V40C278.8 39.5 277.6 39.2 276.1 39.2C271.7 39.2 268 42 268 48V58H258Z" fill="#121926" />
  <path d="M286 58V14H296V58H286Z" fill="#121926" />
</svg>
